<svg xmlns="http://www.w3.org/2000/svg" viewBox="0 0 720 300" width="720" height="300"><title>F4F lockup</title><rect width="720" height="300" fill="#f4efe2"/><path d="M44 0V16L129 57V603L44 644V660H579V487H563L495 605H280V365H424L480 451H496V232H480L424 316H280V57L382 16V0Z" transform="translate(117.690 120.000) scale(0.06000 -0.06000)" fill="#1b3a6b"/><path d="M260 -10Q157 -10 97.5 49.5Q38 109 38 207Q38 283 71.0 341.5Q104 400 160.5 433.0Q217 466 285 466Q366 466 411.0 412.0Q456 358 457 259L453 254H173V249Q173 207 189.0 172.5Q205 138 239.0 118.0Q273 98 329 98Q357 98 389.0 105.0Q421 112 455 129H458V113Q433 60 381.5 25.0Q330 -10 260 -10ZM262 421Q227 421 205.0 389.0Q183 357 176 299H345Q338 368 317.0 394.5Q296 421 262 421Z" transform="translate(155.550 120.000) scale(0.06000 -0.06000)" fill="#1b3a6b"/><path d="M29 0V16L96 48V636L32 683V695L225 750H237V48L296 16V0Z" transform="translate(185.310 120.000) scale(0.06000 -0.06000)" fill="#1b3a6b"/><path d="M29 0V16L96 48V636L32 683V695L225 750H237V48L296 16V0Z" transform="translate(204.870 120.000) scale(0.06000 -0.06000)" fill="#1b3a6b"/><path d="M274 -10Q203 -10 149.0 22.5Q95 55 65.0 109.0Q35 163 35 228Q35 294 65.0 348.0Q95 402 149.0 434.0Q203 466 274 466Q345 466 398.5 434.0Q452 402 482.0 348.0Q512 294 512 228Q512 163 482.0 109.0Q452 55 398.5 22.5Q345 -10 274 -10ZM285 39Q314 39 332.0 62.5Q350 86 359.0 124.5Q368 163 368 208Q368 263 357.5 311.0Q347 359 324.0 388.5Q301 418 265 418Q235 418 216.0 394.5Q197 371 188.0 332.5Q179 294 179 249Q179 194 190.0 146.5Q201 99 224.5 69.0Q248 39 285 39Z" transform="translate(224.430 120.000) scale(0.06000 -0.06000)" fill="#1b3a6b"/><path d="M191 0 26 413 -36 440V456H247V440L178 411V408L262 185H267L382 456H420L540 186H544L630 404V408L567 440V456H763V440L693 406L517 0H479L356 271L229 0Z" transform="translate(257.250 120.000) scale(0.06000 -0.06000)" fill="#1b3a6b"/><path d="M209 -10Q160 -10 123.5 -0.5Q87 9 52 26V142H67L102 90Q138 35 205 35Q283 35 283 91Q283 112 272.5 125.0Q262 138 237.0 150.5Q212 163 169 180Q112 203 85.5 234.0Q59 265 59 311Q59 354 81.5 389.0Q104 424 143.0 445.0Q182 466 231 466Q265 466 297.5 459.0Q330 452 361 436V317H346L315 364Q295 393 275.5 407.0Q256 421 228 421Q198 421 179.5 406.0Q161 391 161 364Q161 347 169.5 334.0Q178 321 200.0 309.0Q222 297 263 281Q291 270 319.0 255.5Q347 241 365.0 214.5Q383 188 383 141Q383 94 358.0 60.0Q333 26 293.5 8.0Q254 -10 209 -10Z" transform="translate(300.930 120.000) scale(0.06000 -0.06000)" fill="#1b3a6b"/><path d="M31 0V16L98 48V636L34 683V695L226 750H238V392H242Q278 427 312.0 446.5Q346 466 392 466Q453 466 491.5 435.0Q530 404 530 343V48L597 16V0H339V16L389 47V302Q389 337 369.0 355.5Q349 374 317 374Q298 374 275.5 367.0Q253 360 238 348V47L289 16V0Z" transform="translate(327.150 120.000) scale(0.06000 -0.06000)" fill="#1b3a6b"/><path d="M168 565Q136 565 115.5 585.5Q95 606 95 637Q95 669 115.5 689.5Q136 710 168 710Q199 710 220.0 689.5Q241 669 241 637Q241 606 220.0 585.5Q199 565 168 565ZM33 0V16L100 48V352L36 399V411L229 466H241V48L300 16V0Z" transform="translate(364.230 120.000) scale(0.06000 -0.06000)" fill="#1b3a6b"/><path d="M31 -230V-214L98 -182V346L34 393V405L216 466H228L236 405H242Q279 437 313.5 451.5Q348 466 388 466Q432 466 470.5 439.5Q509 413 532.0 364.0Q555 315 555 247Q555 167 523.0 109.5Q491 52 438.0 21.0Q385 -10 323 -10Q300 -10 279.0 -8.0Q258 -6 238 -1V-182L316 -214V-230ZM305 384Q287 384 271.5 379.0Q256 374 238 364V75Q267 42 317 42Q341 42 363.5 57.0Q386 72 400.5 110.0Q415 148 415 218Q415 303 381.0 343.5Q347 384 305 384Z" transform="translate(384.210 120.000) scale(0.06000 -0.06000)" fill="#1b3a6b"/><path d="M209 -10Q160 -10 123.5 -0.5Q87 9 52 26V142H67L102 90Q138 35 205 35Q283 35 283 91Q283 112 272.5 125.0Q262 138 237.0 150.5Q212 163 169 180Q112 203 85.5 234.0Q59 265 59 311Q59 354 81.5 389.0Q104 424 143.0 445.0Q182 466 231 466Q265 466 297.5 459.0Q330 452 361 436V317H346L315 364Q295 393 275.5 407.0Q256 421 228 421Q198 421 179.5 406.0Q161 391 161 364Q161 347 169.5 334.0Q178 321 200.0 309.0Q222 297 263 281Q291 270 319.0 255.5Q347 241 365.0 214.5Q383 188 383 141Q383 94 358.0 60.0Q333 26 293.5 8.0Q254 -10 209 -10Z" transform="translate(419.550 120.000) scale(0.06000 -0.06000)" fill="#1b3a6b"/><path d="M189 0V16L284 51V175H15V205L367 660H430V254H549V175H430V51L515 16V0ZM114 254H284V481Z" transform="translate(445.770 120.000) scale(0.06000 -0.06000)" fill="#2f7fd1"/><path d="M44 0V16L129 57V603L44 644V660H579V487H563L495 605H280V365H424L480 451H496V232H480L424 316H280V57L382 16V0Z" transform="translate(479.430 120.000) scale(0.06000 -0.06000)" fill="#1b3a6b"/><path d="M33 0V16L99 48V346L36 393V405L218 466H230L239 373H244Q279 425 307.5 445.0Q336 465 367 465Q395 465 409.5 453.0Q424 441 424 420Q424 414 421 400L404 346L312 370Q269 357 240 321V48L321 16V0Z" transform="translate(517.290 120.000) scale(0.06000 -0.06000)" fill="#1b3a6b"/><path d="M260 -10Q157 -10 97.5 49.5Q38 109 38 207Q38 283 71.0 341.5Q104 400 160.5 433.0Q217 466 285 466Q366 466 411.0 412.0Q456 358 457 259L453 254H173V249Q173 207 189.0 172.5Q205 138 239.0 118.0Q273 98 329 98Q357 98 389.0 105.0Q421 112 455 129H458V113Q433 60 381.5 25.0Q330 -10 260 -10ZM262 421Q227 421 205.0 389.0Q183 357 176 299H345Q338 368 317.0 394.5Q296 421 262 421Z" transform="translate(542.790 120.000) scale(0.06000 -0.06000)" fill="#1b3a6b"/><path d="M260 -10Q157 -10 97.5 49.5Q38 109 38 207Q38 283 71.0 341.5Q104 400 160.5 433.0Q217 466 285 466Q366 466 411.0 412.0Q456 358 457 259L453 254H173V249Q173 207 189.0 172.5Q205 138 239.0 118.0Q273 98 329 98Q357 98 389.0 105.0Q421 112 455 129H458V113Q433 60 381.5 25.0Q330 -10 260 -10ZM262 421Q227 421 205.0 389.0Q183 357 176 299H345Q338 368 317.0 394.5Q296 421 262 421Z" transform="translate(572.550 120.000) scale(0.06000 -0.06000)" fill="#1b3a6b"/><line x1="180.0" y1="150" x2="540.0" y2="150" stroke="#c9d4e2" stroke-width="2"/><path d="M10 0 13 16 96 56 192 604 123 644 126 660H342Q443 660 502.0 625.5Q561 591 561 520Q561 467 521.5 419.0Q482 371 409 353Q487 340 526.5 300.5Q566 261 566 200Q566 152 534.0 106.0Q502 60 438.0 30.0Q374 0 279 0ZM339 610H278L235 365H299Q385 365 426.5 404.5Q468 444 468 503Q468 556 438.0 583.0Q408 610 339 610ZM314 315H226L180 50H288Q381 50 426.5 91.0Q472 132 472 200Q472 260 434.5 287.5Q397 315 314 315Z" transform="translate(160.980 184.000) scale(0.02000 -0.02000)" fill="#3a5d8f"/><path d="M199 -10Q123 -10 86.5 32.5Q50 75 50 148Q50 207 69.5 262.5Q89 318 123.5 362.5Q158 407 203.5 433.5Q249 460 302 460Q352 460 377.5 437.0Q403 414 403 383Q403 349 379.0 320.5Q355 292 295.5 268.5Q236 245 128 227Q126 207 126 185Q126 124 152.0 88.0Q178 52 234 52Q267 52 299.0 70.5Q331 89 365 129H367L377 121Q343 62 295.5 26.0Q248 -10 199 -10ZM275 425Q221 425 183.5 380.5Q146 336 133 263Q208 276 250.0 291.0Q292 306 309.0 326.5Q326 347 326 378Q326 398 313.0 411.5Q300 425 275 425Z" transform="translate(173.500 184.000) scale(0.02000 -0.02000)" fill="#3a5d8f"/><path d="M380 140Q337 64 293.0 27.0Q249 -10 198 -10Q126 -10 88.0 33.5Q50 77 50 160Q50 213 71.0 265.5Q92 318 128.0 362.5Q164 407 210.0 433.5Q256 460 307 460Q339 460 360.5 446.5Q382 433 393.5 415.0Q405 397 405 384Q405 367 391 359L355 336L299 422Q268 422 237.0 403.5Q206 385 180.5 353.5Q155 322 140.0 282.0Q125 242 125 199Q125 129 149.5 90.5Q174 52 229 52Q246 52 267.0 58.5Q288 65 313.0 85.5Q338 106 368 148H370Z" transform="translate(182.360 184.000) scale(0.02000 -0.02000)" fill="#3a5d8f"/><path d="M136 -10Q96 -10 71.5 24.5Q47 59 47 128Q47 190 66.5 249.0Q86 308 120.5 356.0Q155 404 200.0 432.0Q245 460 296 460Q321 460 344.0 454.0Q367 448 385 438L420 460H445L384 119Q379 89 382.5 76.0Q386 63 399 63Q416 63 436.0 81.5Q456 100 474 138L487 132Q458 57 424.5 23.5Q391 -10 356 -10Q321 -10 308.0 17.0Q295 44 303 89L308 115H304Q267 57 224.5 23.5Q182 -10 136 -10ZM123 167Q123 111 135.5 83.5Q148 56 183 56Q207 56 231.0 72.0Q255 88 277.0 113.0Q299 138 316 164L353 370Q334 395 314.5 408.0Q295 421 267 421Q224 421 191.5 384.0Q159 347 141.0 289.0Q123 231 123 167Z" transform="translate(190.900 184.000) scale(0.02000 -0.02000)" fill="#3a5d8f"/><path d="M159 -10Q122 -10 98.5 19.0Q75 48 75 98Q75 108 76.5 118.0Q78 128 79 138L124 389L46 424V430L206 460H210L158 154Q154 129 154 118Q154 90 167.5 70.5Q181 51 212 51Q233 51 254.5 66.0Q276 81 296.0 102.0Q316 123 332 141L375 389L306 424V430L458 460H462L402 119Q397 89 400.5 76.0Q404 63 419 63Q436 63 456.0 81.5Q476 100 494 138L507 132Q478 57 444.5 23.5Q411 -10 376 -10Q341 -10 328.5 17.0Q316 44 323 89L324 95H321Q287 57 262.0 34.0Q237 11 213.5 0.5Q190 -10 159 -10Z" transform="translate(201.040 184.000) scale(0.02000 -0.02000)" fill="#3a5d8f"/><path d="M302 127Q302 95 280.0 63.5Q258 32 217.5 11.0Q177 -10 121 -10Q97 -10 69.0 -0.5Q41 9 21.5 25.0Q2 41 2 60Q2 68 5.5 73.5Q9 79 15 84L38 106L117 26Q125 25 131 25Q181 25 209.0 48.0Q237 71 237 103Q237 129 221.5 151.0Q206 173 153 204Q100 236 82.0 263.5Q64 291 64 332Q64 362 86.5 391.5Q109 421 147.5 440.5Q186 460 235 460Q285 460 312.5 442.5Q340 425 340 402Q340 393 333 386L310 361L234 427Q229 427 224 427Q179 427 155.0 406.5Q131 386 131 354Q131 339 136.5 325.5Q142 312 160.0 297.0Q178 282 213 260Q266 228 284.0 199.0Q302 170 302 127Z" transform="translate(211.480 184.000) scale(0.02000 -0.02000)" fill="#3a5d8f"/><path d="M199 -10Q123 -10 86.5 32.5Q50 75 50 148Q50 207 69.5 262.5Q89 318 123.5 362.5Q158 407 203.5 433.5Q249 460 302 460Q352 460 377.5 437.0Q403 414 403 383Q403 349 379.0 320.5Q355 292 295.5 268.5Q236 245 128 227Q126 207 126 185Q126 124 152.0 88.0Q178 52 234 52Q267 52 299.0 70.5Q331 89 365 129H367L377 121Q343 62 295.5 26.0Q248 -10 199 -10ZM275 425Q221 425 183.5 380.5Q146 336 133 263Q208 276 250.0 291.0Q292 306 309.0 326.5Q326 347 326 378Q326 398 313.0 411.5Q300 425 275 425Z" transform="translate(218.540 184.000) scale(0.02000 -0.02000)" fill="#3a5d8f"/><path d="M50 406V450H135L138 473Q142 501 157.0 537.5Q172 574 196.0 611.0Q220 648 252.0 679.5Q284 711 321.5 730.5Q359 750 401 750Q428 750 443.5 740.0Q459 730 459 719Q459 713 454 701L437 662L334 706Q287 678 258.0 621.5Q229 565 215 472L212 450H325V406H205L151 34Q144 -14 120.0 -62.5Q96 -111 63.0 -151.0Q30 -191 -6.0 -215.5Q-42 -240 -72 -240Q-94 -240 -110.5 -229.5Q-127 -219 -127 -205Q-127 -200 -121 -188L-105 -154L-24 -190Q13 -165 37.5 -113.0Q62 -61 74 24L128 406Z" transform="translate(232.160 184.000) scale(0.02000 -0.02000)" fill="#3a5d8f"/><path d="M196 585Q173 585 156.0 602.0Q139 619 139 642Q139 665 156.0 682.0Q173 699 196 699Q219 699 236.0 682.0Q253 665 253 642Q253 619 236.0 602.0Q219 585 196 585ZM125 -10Q90 -10 77.0 17.0Q64 44 72 89L125 390L38 424V430L211 460H214L153 119Q148 89 151.5 76.0Q155 63 168 63Q185 63 205.0 81.5Q225 100 243 138L256 132Q227 57 193.5 23.5Q160 -10 125 -10Z" transform="translate(238.540 184.000) scale(0.02000 -0.02000)" fill="#3a5d8f"/><path d="M43 0 112 389 34 424V430L176 460H179V355H183Q219 394 245.5 417.0Q272 440 297.5 450.0Q323 460 355 460Q404 460 430.5 420.0Q457 380 445 312L410 119Q405 89 408.5 76.0Q412 63 425 63Q442 63 462.0 81.5Q482 100 500 138L513 132Q484 57 450.5 23.5Q417 -10 382 -10Q347 -10 334.0 17.0Q321 44 329 89L368 309Q373 344 359.5 371.5Q346 399 302 399Q280 399 256.5 384.0Q233 369 211.0 348.5Q189 328 172 309L119 0Z" transform="translate(244.300 184.000) scale(0.02000 -0.02000)" fill="#3a5d8f"/><path d="M139 -10Q99 -10 74.5 24.5Q50 59 50 128Q50 190 69.5 249.0Q89 308 123.5 356.0Q158 404 203.0 432.0Q248 460 299 460Q335 460 368 447L409 680L322 714V720L495 750H498L387 119Q382 89 385.5 76.0Q389 63 402 63Q419 63 439.0 81.5Q459 100 477 138L490 132Q461 57 427.5 23.5Q394 -10 359 -10Q324 -10 311.0 17.0Q298 44 306 89L311 115H307Q223 -10 139 -10ZM126 167Q126 104 140.5 80.0Q155 56 186 56Q215 56 251.0 85.5Q287 115 319 164L355 369Q334 397 314.5 409.0Q295 421 270 421Q230 421 197.5 386.0Q165 351 145.5 293.5Q126 236 126 167Z" transform="translate(254.900 184.000) scale(0.02000 -0.02000)" fill="#3a5d8f"/><path d="M196 585Q173 585 156.0 602.0Q139 619 139 642Q139 665 156.0 682.0Q173 699 196 699Q219 699 236.0 682.0Q253 665 253 642Q253 619 236.0 602.0Q219 585 196 585ZM125 -10Q90 -10 77.0 17.0Q64 44 72 89L125 390L38 424V430L211 460H214L153 119Q148 89 151.5 76.0Q155 63 168 63Q185 63 205.0 81.5Q225 100 243 138L256 132Q227 57 193.5 23.5Q160 -10 125 -10Z" transform="translate(265.200 184.000) scale(0.02000 -0.02000)" fill="#3a5d8f"/><path d="M43 0 112 389 34 424V430L176 460H179V355H183Q219 394 245.5 417.0Q272 440 297.5 450.0Q323 460 355 460Q404 460 430.5 420.0Q457 380 445 312L410 119Q405 89 408.5 76.0Q412 63 425 63Q442 63 462.0 81.5Q482 100 500 138L513 132Q484 57 450.5 23.5Q417 -10 382 -10Q347 -10 334.0 17.0Q321 44 329 89L368 309Q373 344 359.5 371.5Q346 399 302 399Q280 399 256.5 384.0Q233 369 211.0 348.5Q189 328 172 309L119 0Z" transform="translate(270.960 184.000) scale(0.02000 -0.02000)" fill="#3a5d8f"/><path d="M208 153Q178 153 153 162Q130 151 120.5 134.5Q111 118 111 100Q111 80 131.0 69.0Q151 58 182.5 51.0Q214 44 250.0 36.5Q286 29 317.5 16.5Q349 4 369.0 -17.5Q389 -39 389 -75Q389 -115 364.0 -153.0Q339 -191 289.5 -215.5Q240 -240 164 -240Q75 -240 32.5 -210.5Q-10 -181 -10 -138Q-10 -107 -0.5 -88.5Q9 -70 31 -48L111 -3V-1Q80 8 59.5 24.0Q39 40 39 71Q39 92 44.0 106.0Q49 120 63 136L130 170V173Q103 189 87.5 216.5Q72 244 72 279Q72 321 96.5 363.0Q121 405 164.0 432.5Q207 460 261 460Q288 460 317 450H468V406H379L375 403Q396 375 396 329Q396 301 383.0 270.5Q370 240 345.0 213.0Q320 186 285.5 169.5Q251 153 208 153ZM226 192Q254 192 275.5 213.0Q297 234 309.5 264.5Q322 295 322 325Q322 369 301.5 395.0Q281 421 246 421Q216 421 193.5 401.5Q171 382 159.0 352.0Q147 322 147 290Q147 247 168.5 219.5Q190 192 226 192ZM65 -127Q65 -164 97.0 -186.5Q129 -209 181 -209Q250 -209 283.0 -178.0Q316 -147 316 -104Q316 -76 299.5 -59.5Q283 -43 256.0 -34.0Q229 -25 197.5 -19.5Q166 -14 136 -7Q90 -39 77.5 -68.5Q65 -98 65 -127Z" transform="translate(281.560 184.000) scale(0.02000 -0.02000)" fill="#3a5d8f"/><path d="M43 0 112 389 34 424V430L176 460H179V355H183Q218 394 243.0 417.0Q268 440 292.0 450.0Q316 460 348 460Q385 460 409.0 432.0Q433 404 435 355H440Q475 394 500.0 417.0Q525 440 549.0 450.0Q573 460 605 460Q650 460 675.0 420.0Q700 380 688 312L653 119Q648 89 651.5 76.0Q655 63 668 63Q685 63 705.0 81.5Q725 100 743 138L756 132Q727 57 693.5 23.5Q660 -10 625 -10Q590 -10 577.0 17.0Q564 44 572 89L611 309Q617 344 604.5 371.5Q592 399 552 399Q530 399 508.5 384.5Q487 370 467.0 349.5Q447 329 431 311L375 0H299L354 309Q360 344 347.5 371.5Q335 399 295 399Q273 399 251.0 384.0Q229 369 208.5 348.5Q188 328 172 309L119 0Z" transform="translate(295.160 184.000) scale(0.02000 -0.02000)" fill="#3a5d8f"/><path d="M220 -10Q133 -10 91.5 44.5Q50 99 50 184Q50 231 67.0 279.5Q84 328 116.0 369.0Q148 410 192.0 435.0Q236 460 289 460Q376 460 417.5 406.0Q459 352 459 266Q459 221 442.5 172.5Q426 124 394.5 82.5Q363 41 319.0 15.5Q275 -10 220 -10ZM231 28Q275 28 306.5 61.5Q338 95 355.0 150.5Q372 206 372 272Q372 346 352.5 384.5Q333 423 280 423Q238 423 205.5 392.5Q173 362 155.0 308.0Q137 254 137 181Q137 107 157.0 67.5Q177 28 231 28Z" transform="translate(310.620 184.000) scale(0.02000 -0.02000)" fill="#3a5d8f"/><path d="M43 0 112 389 34 424V430L176 460H179V355H183Q219 394 245.5 417.0Q272 440 297.5 450.0Q323 460 355 460Q404 460 430.5 420.0Q457 380 445 312L410 119Q405 89 408.5 76.0Q412 63 425 63Q442 63 462.0 81.5Q482 100 500 138L513 132Q484 57 450.5 23.5Q417 -10 382 -10Q347 -10 334.0 17.0Q321 44 329 89L368 309Q373 344 359.5 371.5Q346 399 302 399Q280 399 256.5 384.0Q233 369 211.0 348.5Q189 328 172 309L119 0Z" transform="translate(320.800 184.000) scale(0.02000 -0.02000)" fill="#3a5d8f"/><path d="M199 -10Q123 -10 86.5 32.5Q50 75 50 148Q50 207 69.5 262.5Q89 318 123.5 362.5Q158 407 203.5 433.5Q249 460 302 460Q352 460 377.5 437.0Q403 414 403 383Q403 349 379.0 320.5Q355 292 295.5 268.5Q236 245 128 227Q126 207 126 185Q126 124 152.0 88.0Q178 52 234 52Q267 52 299.0 70.5Q331 89 365 129H367L377 121Q343 62 295.5 26.0Q248 -10 199 -10ZM275 425Q221 425 183.5 380.5Q146 336 133 263Q208 276 250.0 291.0Q292 306 309.0 326.5Q326 347 326 378Q326 398 313.0 411.5Q300 425 275 425Z" transform="translate(331.400 184.000) scale(0.02000 -0.02000)" fill="#3a5d8f"/><path d="M325 229Q348 268 363.5 300.5Q379 333 381 367L325 414L352 447Q363 460 376 460Q398 460 417.5 435.5Q437 411 437 381Q437 357 420.5 323.5Q404 290 365 228L134 -142Q103 -191 69.5 -215.5Q36 -240 9 -240Q-34 -240 -34 -196Q-34 -185 -30.0 -174.5Q-26 -164 -20 -155L63 -166Q77 -158 87.5 -147.5Q98 -137 110.0 -119.0Q122 -101 141 -70L188 6L102 392L17 424V430L165 460H168L244 105H249Z" transform="translate(340.260 184.000) scale(0.02000 -0.02000)" fill="#3a5d8f"/><path d="M302 127Q302 95 280.0 63.5Q258 32 217.5 11.0Q177 -10 121 -10Q97 -10 69.0 -0.5Q41 9 21.5 25.0Q2 41 2 60Q2 68 5.5 73.5Q9 79 15 84L38 106L117 26Q125 25 131 25Q181 25 209.0 48.0Q237 71 237 103Q237 129 221.5 151.0Q206 173 153 204Q100 236 82.0 263.5Q64 291 64 332Q64 362 86.5 391.5Q109 421 147.5 440.5Q186 460 235 460Q285 460 312.5 442.5Q340 425 340 402Q340 393 333 386L310 361L234 427Q229 427 224 427Q179 427 155.0 406.5Q131 386 131 354Q131 339 136.5 325.5Q142 312 160.0 297.0Q178 282 213 260Q266 228 284.0 199.0Q302 170 302 127Z" transform="translate(353.960 184.000) scale(0.02000 -0.02000)" fill="#3a5d8f"/><path d="M106 0H30L149 678L71 713V719L235 749H238L169 355H171Q206 394 232.5 417.0Q259 440 284.5 450.0Q310 460 342 460Q391 460 417.5 420.0Q444 380 432 312L397 119Q392 89 395.5 76.0Q399 63 412 63Q429 63 449.0 81.5Q469 100 487 138L500 132Q471 57 437.5 23.5Q404 -10 369 -10Q334 -10 321.0 17.0Q308 44 316 89L355 309Q360 344 346.5 371.5Q333 399 289 399Q267 399 244.0 384.5Q221 370 199.0 349.5Q177 329 161 311Z" transform="translate(361.020 184.000) scale(0.02000 -0.02000)" fill="#3a5d8f"/><path d="M220 -10Q133 -10 91.5 44.5Q50 99 50 184Q50 231 67.0 279.5Q84 328 116.0 369.0Q148 410 192.0 435.0Q236 460 289 460Q376 460 417.5 406.0Q459 352 459 266Q459 221 442.5 172.5Q426 124 394.5 82.5Q363 41 319.0 15.5Q275 -10 220 -10ZM231 28Q275 28 306.5 61.5Q338 95 355.0 150.5Q372 206 372 272Q372 346 352.5 384.5Q333 423 280 423Q238 423 205.5 392.5Q173 362 155.0 308.0Q137 254 137 181Q137 107 157.0 67.5Q177 28 231 28Z" transform="translate(371.360 184.000) scale(0.02000 -0.02000)" fill="#3a5d8f"/><path d="M159 -10Q122 -10 98.5 19.0Q75 48 75 98Q75 108 76.5 118.0Q78 128 79 138L124 389L46 424V430L206 460H210L158 154Q154 129 154 118Q154 90 167.5 70.5Q181 51 212 51Q233 51 254.5 66.0Q276 81 296.0 102.0Q316 123 332 141L375 389L306 424V430L458 460H462L402 119Q397 89 400.5 76.0Q404 63 419 63Q436 63 456.0 81.5Q476 100 494 138L507 132Q478 57 444.5 23.5Q411 -10 376 -10Q341 -10 328.5 17.0Q316 44 323 89L324 95H321Q287 57 262.0 34.0Q237 11 213.5 0.5Q190 -10 159 -10Z" transform="translate(381.540 184.000) scale(0.02000 -0.02000)" fill="#3a5d8f"/><path d="M101 -10Q66 -10 53.5 17.0Q41 44 48 89L151 680L64 714V720L237 750H240L129 119Q124 89 127.5 76.0Q131 63 144 63Q161 63 181.0 81.5Q201 100 219 138L232 132Q203 57 169.5 23.5Q136 -10 101 -10Z" transform="translate(391.980 184.000) scale(0.02000 -0.02000)" fill="#3a5d8f"/><path d="M139 -10Q99 -10 74.5 24.5Q50 59 50 128Q50 190 69.5 249.0Q89 308 123.5 356.0Q158 404 203.0 432.0Q248 460 299 460Q335 460 368 447L409 680L322 714V720L495 750H498L387 119Q382 89 385.5 76.0Q389 63 402 63Q419 63 439.0 81.5Q459 100 477 138L490 132Q461 57 427.5 23.5Q394 -10 359 -10Q324 -10 311.0 17.0Q298 44 306 89L311 115H307Q223 -10 139 -10ZM126 167Q126 104 140.5 80.0Q155 56 186 56Q215 56 251.0 85.5Q287 115 319 164L355 369Q334 397 314.5 409.0Q295 421 270 421Q230 421 197.5 386.0Q165 351 145.5 293.5Q126 236 126 167Z" transform="translate(397.140 184.000) scale(0.02000 -0.02000)" fill="#3a5d8f"/><path d="M43 0 112 389 34 424V430L176 460H179V355H183Q219 394 245.5 417.0Q272 440 297.5 450.0Q323 460 355 460Q404 460 430.5 420.0Q457 380 445 312L410 119Q405 89 408.5 76.0Q412 63 425 63Q442 63 462.0 81.5Q482 100 500 138L513 132Q484 57 450.5 23.5Q417 -10 382 -10Q347 -10 334.0 17.0Q321 44 329 89L368 309Q373 344 359.5 371.5Q346 399 302 399Q280 399 256.5 384.0Q233 369 211.0 348.5Q189 328 172 309L119 0Z" transform="translate(407.440 184.000) scale(0.02000 -0.02000)" fill="#3a5d8f"/><path d="M63 493 176 740H282L280 727L84 493Z" transform="translate(418.040 184.000) scale(0.02000 -0.02000)" fill="#3a5d8f"/><path d="M131 -10Q98 -10 81.0 11.5Q64 33 64 70Q64 78 65.5 88.0Q67 98 68 108L121 406H47V412L132 450L218 560H224L205 450H330V406H197L152 152Q150 139 149.0 128.5Q148 118 148 110Q148 86 156.0 76.0Q164 66 177 66Q200 66 226.5 92.0Q253 118 275 167L288 161Q255 67 214.5 28.5Q174 -10 131 -10Z" transform="translate(422.800 184.000) scale(0.02000 -0.02000)" fill="#3a5d8f"/><path d="M380 140Q337 64 293.0 27.0Q249 -10 198 -10Q126 -10 88.0 33.5Q50 77 50 160Q50 213 71.0 265.5Q92 318 128.0 362.5Q164 407 210.0 433.5Q256 460 307 460Q339 460 360.5 446.5Q382 433 393.5 415.0Q405 397 405 384Q405 367 391 359L355 336L299 422Q268 422 237.0 403.5Q206 385 180.5 353.5Q155 322 140.0 282.0Q125 242 125 199Q125 129 149.5 90.5Q174 52 229 52Q246 52 267.0 58.5Q288 65 313.0 85.5Q338 106 368 148H370Z" transform="translate(433.840 184.000) scale(0.02000 -0.02000)" fill="#3a5d8f"/><path d="M220 -10Q133 -10 91.5 44.5Q50 99 50 184Q50 231 67.0 279.5Q84 328 116.0 369.0Q148 410 192.0 435.0Q236 460 289 460Q376 460 417.5 406.0Q459 352 459 266Q459 221 442.5 172.5Q426 124 394.5 82.5Q363 41 319.0 15.5Q275 -10 220 -10ZM231 28Q275 28 306.5 61.5Q338 95 355.0 150.5Q372 206 372 272Q372 346 352.5 384.5Q333 423 280 423Q238 423 205.5 392.5Q173 362 155.0 308.0Q137 254 137 181Q137 107 157.0 67.5Q177 28 231 28Z" transform="translate(442.380 184.000) scale(0.02000 -0.02000)" fill="#3a5d8f"/><path d="M302 127Q302 95 280.0 63.5Q258 32 217.5 11.0Q177 -10 121 -10Q97 -10 69.0 -0.5Q41 9 21.5 25.0Q2 41 2 60Q2 68 5.5 73.5Q9 79 15 84L38 106L117 26Q125 25 131 25Q181 25 209.0 48.0Q237 71 237 103Q237 129 221.5 151.0Q206 173 153 204Q100 236 82.0 263.5Q64 291 64 332Q64 362 86.5 391.5Q109 421 147.5 440.5Q186 460 235 460Q285 460 312.5 442.5Q340 425 340 402Q340 393 333 386L310 361L234 427Q229 427 224 427Q179 427 155.0 406.5Q131 386 131 354Q131 339 136.5 325.5Q142 312 160.0 297.0Q178 282 213 260Q266 228 284.0 199.0Q302 170 302 127Z" transform="translate(452.560 184.000) scale(0.02000 -0.02000)" fill="#3a5d8f"/><path d="M131 -10Q98 -10 81.0 11.5Q64 33 64 70Q64 78 65.5 88.0Q67 98 68 108L121 406H47V412L132 450L218 560H224L205 450H330V406H197L152 152Q150 139 149.0 128.5Q148 118 148 110Q148 86 156.0 76.0Q164 66 177 66Q200 66 226.5 92.0Q253 118 275 167L288 161Q255 67 214.5 28.5Q174 -10 131 -10Z" transform="translate(459.620 184.000) scale(0.02000 -0.02000)" fill="#3a5d8f"/><path d="M325 229Q348 268 363.5 300.5Q379 333 381 367L325 414L352 447Q363 460 376 460Q398 460 417.5 435.5Q437 411 437 381Q437 357 420.5 323.5Q404 290 365 228L134 -142Q103 -191 69.5 -215.5Q36 -240 9 -240Q-34 -240 -34 -196Q-34 -185 -30.0 -174.5Q-26 -164 -20 -155L63 -166Q77 -158 87.5 -147.5Q98 -137 110.0 -119.0Q122 -101 141 -70L188 6L102 392L17 424V430L165 460H168L244 105H249Z" transform="translate(470.660 184.000) scale(0.02000 -0.02000)" fill="#3a5d8f"/><path d="M220 -10Q133 -10 91.5 44.5Q50 99 50 184Q50 231 67.0 279.5Q84 328 116.0 369.0Q148 410 192.0 435.0Q236 460 289 460Q376 460 417.5 406.0Q459 352 459 266Q459 221 442.5 172.5Q426 124 394.5 82.5Q363 41 319.0 15.5Q275 -10 220 -10ZM231 28Q275 28 306.5 61.5Q338 95 355.0 150.5Q372 206 372 272Q372 346 352.5 384.5Q333 423 280 423Q238 423 205.5 392.5Q173 362 155.0 308.0Q137 254 137 181Q137 107 157.0 67.5Q177 28 231 28Z" transform="translate(479.600 184.000) scale(0.02000 -0.02000)" fill="#3a5d8f"/><path d="M159 -10Q122 -10 98.5 19.0Q75 48 75 98Q75 108 76.5 118.0Q78 128 79 138L124 389L46 424V430L206 460H210L158 154Q154 129 154 118Q154 90 167.5 70.5Q181 51 212 51Q233 51 254.5 66.0Q276 81 296.0 102.0Q316 123 332 141L375 389L306 424V430L458 460H462L402 119Q397 89 400.5 76.0Q404 63 419 63Q436 63 456.0 81.5Q476 100 494 138L507 132Q478 57 444.5 23.5Q411 -10 376 -10Q341 -10 328.5 17.0Q316 44 323 89L324 95H321Q287 57 262.0 34.0Q237 11 213.5 0.5Q190 -10 159 -10Z" transform="translate(489.780 184.000) scale(0.02000 -0.02000)" fill="#3a5d8f"/><path d="M43 0 112 389 34 424V430L176 460H179V355H183Q218 394 243.0 417.0Q268 440 292.0 450.0Q316 460 348 460Q385 460 409.0 432.0Q433 404 435 355H440Q475 394 500.0 417.0Q525 440 549.0 450.0Q573 460 605 460Q650 460 675.0 420.0Q700 380 688 312L653 119Q648 89 651.5 76.0Q655 63 668 63Q685 63 705.0 81.5Q725 100 743 138L756 132Q727 57 693.5 23.5Q660 -10 625 -10Q590 -10 577.0 17.0Q564 44 572 89L611 309Q617 344 604.5 371.5Q592 399 552 399Q530 399 508.5 384.5Q487 370 467.0 349.5Q447 329 431 311L375 0H299L354 309Q360 344 347.5 371.5Q335 399 295 399Q273 399 251.0 384.0Q229 369 208.5 348.5Q188 328 172 309L119 0Z" transform="translate(504.980 184.000) scale(0.02000 -0.02000)" fill="#3a5d8f"/><path d="M220 -10Q133 -10 91.5 44.5Q50 99 50 184Q50 231 67.0 279.5Q84 328 116.0 369.0Q148 410 192.0 435.0Q236 460 289 460Q376 460 417.5 406.0Q459 352 459 266Q459 221 442.5 172.5Q426 124 394.5 82.5Q363 41 319.0 15.5Q275 -10 220 -10ZM231 28Q275 28 306.5 61.5Q338 95 355.0 150.5Q372 206 372 272Q372 346 352.5 384.5Q333 423 280 423Q238 423 205.5 392.5Q173 362 155.0 308.0Q137 254 137 181Q137 107 157.0 67.5Q177 28 231 28Z" transform="translate(520.440 184.000) scale(0.02000 -0.02000)" fill="#3a5d8f"/><path d="M43 0 112 389 34 424V430L176 460H179V355H183Q219 394 245.5 417.0Q272 440 297.5 450.0Q323 460 355 460Q404 460 430.5 420.0Q457 380 445 312L410 119Q405 89 408.5 76.0Q412 63 425 63Q442 63 462.0 81.5Q482 100 500 138L513 132Q484 57 450.5 23.5Q417 -10 382 -10Q347 -10 334.0 17.0Q321 44 329 89L368 309Q373 344 359.5 371.5Q346 399 302 399Q280 399 256.5 384.0Q233 369 211.0 348.5Q189 328 172 309L119 0Z" transform="translate(530.620 184.000) scale(0.02000 -0.02000)" fill="#3a5d8f"/><path d="M199 -10Q123 -10 86.5 32.5Q50 75 50 148Q50 207 69.5 262.5Q89 318 123.5 362.5Q158 407 203.5 433.5Q249 460 302 460Q352 460 377.5 437.0Q403 414 403 383Q403 349 379.0 320.5Q355 292 295.5 268.5Q236 245 128 227Q126 207 126 185Q126 124 152.0 88.0Q178 52 234 52Q267 52 299.0 70.5Q331 89 365 129H367L377 121Q343 62 295.5 26.0Q248 -10 199 -10ZM275 425Q221 425 183.5 380.5Q146 336 133 263Q208 276 250.0 291.0Q292 306 309.0 326.5Q326 347 326 378Q326 398 313.0 411.5Q300 425 275 425Z" transform="translate(541.220 184.000) scale(0.02000 -0.02000)" fill="#3a5d8f"/><path d="M325 229Q348 268 363.5 300.5Q379 333 381 367L325 414L352 447Q363 460 376 460Q398 460 417.5 435.5Q437 411 437 381Q437 357 420.5 323.5Q404 290 365 228L134 -142Q103 -191 69.5 -215.5Q36 -240 9 -240Q-34 -240 -34 -196Q-34 -185 -30.0 -174.5Q-26 -164 -20 -155L63 -166Q77 -158 87.5 -147.5Q98 -137 110.0 -119.0Q122 -101 141 -70L188 6L102 392L17 424V430L165 460H168L244 105H249Z" transform="translate(550.080 184.000) scale(0.02000 -0.02000)" fill="#3a5d8f"/><path d="M50 0 240 730H361L550 0H459L411 194H190L142 0ZM208 270H392L336 495Q320 559 311.0 602.0Q302 645 300 658Q298 645 289.0 602.0Q280 559 264 496Z" transform="translate(315.000 224.000) scale(0.01000 -0.01000)" fill="#6b7a90"/><path d="M92 0V730H327Q395 730 445.0 703.5Q495 677 522.5 629.0Q550 581 550 515Q550 450 522.5 401.5Q495 353 445.0 326.5Q395 300 327 300H182V0ZM182 381H327Q386 381 421.5 417.5Q457 454 457 515Q457 577 421.5 613.0Q386 649 327 649H182Z" transform="translate(330.000 224.000) scale(0.01000 -0.01000)" fill="#6b7a90"/><path d="M92 0V730H318Q383 730 432.0 703.5Q481 677 508.0 630.0Q535 583 535 520Q535 446 496.5 393.0Q458 340 392 320L545 0H439L299 310H182V0ZM182 391H318Q374 391 408.0 426.5Q442 462 442 520Q442 579 408.0 614.0Q374 649 318 649H182Z" transform="translate(337.500 224.000) scale(0.01000 -0.01000)" fill="#6b7a90"/><path d="M300 -10Q234 -10 186.5 15.0Q139 40 113.5 87.5Q88 135 88 200V530Q88 596 113.5 643.0Q139 690 186.5 715.0Q234 740 300 740Q366 740 413.5 715.0Q461 690 486.5 643.0Q512 596 512 531V200Q512 135 486.5 87.5Q461 40 413.5 15.0Q366 -10 300 -10ZM300 71Q359 71 390.5 104.5Q422 138 422 200V530Q422 592 390.5 625.5Q359 659 300 659Q242 659 210.0 625.5Q178 592 178 530V200Q178 138 210.0 104.5Q242 71 300 71Z" transform="translate(345.000 224.000) scale(0.01000 -0.01000)" fill="#6b7a90"/><path d="M270 -10Q165 -10 105.0 49.0Q45 108 45 210H135Q135 143 170.5 106.5Q206 70 270 70Q334 70 369.5 106.5Q405 143 405 210V648H230V730H495V210Q495 108 434.5 49.0Q374 -10 270 -10Z" transform="translate(352.500 224.000) scale(0.01000 -0.01000)" fill="#6b7a90"/><path d="M100 0V730H520V648H189V422H485V341H189V82H520V0Z" transform="translate(360.000 224.000) scale(0.01000 -0.01000)" fill="#6b7a90"/><path d="M304 -10Q238 -10 189.5 15.0Q141 40 114.5 87.5Q88 135 88 200V530Q88 596 114.5 643.0Q141 690 189.5 715.0Q238 740 304 740Q370 740 418.0 714.5Q466 689 492.0 642.0Q518 595 518 530H428Q428 592 395.5 625.5Q363 659 304 659Q245 659 211.5 626.0Q178 593 178 531V200Q178 138 211.5 104.5Q245 71 304 71Q363 71 395.5 104.5Q428 138 428 200H518Q518 136 492.0 88.5Q466 41 418.0 15.5Q370 -10 304 -10Z" transform="translate(367.500 224.000) scale(0.01000 -0.01000)" fill="#6b7a90"/><path d="M255 0V649H55V731H545V649H345V0Z" transform="translate(375.000 224.000) scale(0.01000 -0.01000)" fill="#6b7a90"/><path d="M93 0V730H300Q400 730 456.5 680.0Q513 630 513 541Q513 491 492.0 454.0Q471 417 432.5 397.0Q394 377 340 378V393Q398 394 440.5 371.0Q483 348 506.5 305.0Q530 262 530 203Q530 141 504.0 95.0Q478 49 430.0 24.5Q382 0 315 0ZM181 81H305Q368 81 404.5 114.5Q441 148 441 206Q441 266 404.5 303.5Q368 341 305 341H181ZM181 419H299Q357 419 390.5 450.0Q424 481 424 534Q424 587 391.0 618.0Q358 649 300 649H181Z" transform="translate(390.000 224.000) scale(0.01000 -0.01000)" fill="#6b7a90"/><path d="M255 0V273L35 730H128L273 430Q285 405 292.0 387.5Q299 370 301 362Q303 370 310.5 387.5Q318 405 330 430L472 730H565L345 273V0Z" transform="translate(397.500 224.000) scale(0.01000 -0.01000)" fill="#6b7a90"/><path d="M-24 -174Q-40 -174 -50.0 -166.0Q-60 -158 -60 -147Q-60 -143 -58 -137L-44 -96L27 -113Q47 -98 60.5 -79.0Q74 -60 83.0 -29.0Q92 2 101 51L199 604L130 644L133 660H370L367 644L285 604L220 240Q201 128 168.0 38.0Q135 -52 86 -101Q55 -132 34.5 -148.0Q14 -164 1.0 -169.0Q-12 -174 -24 -174Z" transform="translate(287.919 250.000) scale(0.01800 -0.01800)" fill="#409ad1"/><path d="M220 -10Q133 -10 91.5 44.5Q50 99 50 184Q50 231 67.0 279.5Q84 328 116.0 369.0Q148 410 192.0 435.0Q236 460 289 460Q376 460 417.5 406.0Q459 352 459 266Q459 221 442.5 172.5Q426 124 394.5 82.5Q363 41 319.0 15.5Q275 -10 220 -10ZM231 28Q275 28 306.5 61.5Q338 95 355.0 150.5Q372 206 372 272Q372 346 352.5 384.5Q333 423 280 423Q238 423 205.5 392.5Q173 362 155.0 308.0Q137 254 137 181Q137 107 157.0 67.5Q177 28 231 28Z" transform="translate(294.669 250.000) scale(0.01800 -0.01800)" fill="#409ad1"/><path d="M43 0 112 389 34 424V430L176 460H179V355H183Q219 394 245.5 417.0Q272 440 297.5 450.0Q323 460 355 460Q404 460 430.5 420.0Q457 380 445 312L410 119Q405 89 408.5 76.0Q412 63 425 63Q442 63 462.0 81.5Q482 100 500 138L513 132Q484 57 450.5 23.5Q417 -10 382 -10Q347 -10 334.0 17.0Q321 44 329 89L368 309Q373 344 359.5 371.5Q346 399 302 399Q280 399 256.5 384.0Q233 369 211.0 348.5Q189 328 172 309L119 0Z" transform="translate(303.831 250.000) scale(0.01800 -0.01800)" fill="#409ad1"/><path d="M136 -10Q96 -10 71.5 24.5Q47 59 47 128Q47 190 66.5 249.0Q86 308 120.5 356.0Q155 404 200.0 432.0Q245 460 296 460Q321 460 344.0 454.0Q367 448 385 438L420 460H445L384 119Q379 89 382.5 76.0Q386 63 399 63Q416 63 436.0 81.5Q456 100 474 138L487 132Q458 57 424.5 23.5Q391 -10 356 -10Q321 -10 308.0 17.0Q295 44 303 89L308 115H304Q267 57 224.5 23.5Q182 -10 136 -10ZM123 167Q123 111 135.5 83.5Q148 56 183 56Q207 56 231.0 72.0Q255 88 277.0 113.0Q299 138 316 164L353 370Q334 395 314.5 408.0Q295 421 267 421Q224 421 191.5 384.0Q159 347 141.0 289.0Q123 231 123 167Z" transform="translate(313.371 250.000) scale(0.01800 -0.01800)" fill="#409ad1"/><path d="M131 -10Q98 -10 81.0 11.5Q64 33 64 70Q64 78 65.5 88.0Q67 98 68 108L121 406H47V412L132 450L218 560H224L205 450H330V406H197L152 152Q150 139 149.0 128.5Q148 118 148 110Q148 86 156.0 76.0Q164 66 177 66Q200 66 226.5 92.0Q253 118 275 167L288 161Q255 67 214.5 28.5Q174 -10 131 -10Z" transform="translate(322.497 250.000) scale(0.01800 -0.01800)" fill="#409ad1"/><path d="M106 0H30L149 678L71 713V719L235 749H238L169 355H171Q206 394 232.5 417.0Q259 440 284.5 450.0Q310 460 342 460Q391 460 417.5 420.0Q444 380 432 312L397 119Q392 89 395.5 76.0Q399 63 412 63Q429 63 449.0 81.5Q469 100 487 138L500 132Q471 57 437.5 23.5Q404 -10 369 -10Q334 -10 321.0 17.0Q308 44 316 89L355 309Q360 344 346.5 371.5Q333 399 289 399Q267 399 244.0 384.5Q221 370 199.0 349.5Q177 329 161 311Z" transform="translate(328.149 250.000) scale(0.01800 -0.01800)" fill="#409ad1"/><path d="M136 -10Q96 -10 71.5 24.5Q47 59 47 128Q47 190 66.5 249.0Q86 308 120.5 356.0Q155 404 200.0 432.0Q245 460 296 460Q321 460 344.0 454.0Q367 448 385 438L420 460H445L384 119Q379 89 382.5 76.0Q386 63 399 63Q416 63 436.0 81.5Q456 100 474 138L487 132Q458 57 424.5 23.5Q391 -10 356 -10Q321 -10 308.0 17.0Q295 44 303 89L308 115H304Q267 57 224.5 23.5Q182 -10 136 -10ZM123 167Q123 111 135.5 83.5Q148 56 183 56Q207 56 231.0 72.0Q255 88 277.0 113.0Q299 138 316 164L353 370Q334 395 314.5 408.0Q295 421 267 421Q224 421 191.5 384.0Q159 347 141.0 289.0Q123 231 123 167Z" transform="translate(337.455 250.000) scale(0.01800 -0.01800)" fill="#409ad1"/><path d="M43 0 112 389 34 424V430L176 460H179V355H183Q219 394 245.5 417.0Q272 440 297.5 450.0Q323 460 355 460Q404 460 430.5 420.0Q457 380 445 312L410 119Q405 89 408.5 76.0Q412 63 425 63Q442 63 462.0 81.5Q482 100 500 138L513 132Q484 57 450.5 23.5Q417 -10 382 -10Q347 -10 334.0 17.0Q321 44 329 89L368 309Q373 344 359.5 371.5Q346 399 302 399Q280 399 256.5 384.0Q233 369 211.0 348.5Q189 328 172 309L119 0Z" transform="translate(346.581 250.000) scale(0.01800 -0.01800)" fill="#409ad1"/><path d="M10 0 13 16 96 56 192 604 123 644 126 660H373L370 644L278 604L181 50H412L505 222H521L482 0Z" transform="translate(360.405 250.000) scale(0.01800 -0.01800)" fill="#409ad1"/><path d="M196 585Q173 585 156.0 602.0Q139 619 139 642Q139 665 156.0 682.0Q173 699 196 699Q219 699 236.0 682.0Q253 665 253 642Q253 619 236.0 602.0Q219 585 196 585ZM125 -10Q90 -10 77.0 17.0Q64 44 72 89L125 390L38 424V430L211 460H214L153 119Q148 89 151.5 76.0Q155 63 168 63Q185 63 205.0 81.5Q225 100 243 138L256 132Q227 57 193.5 23.5Q160 -10 125 -10Z" transform="translate(371.169 250.000) scale(0.01800 -0.01800)" fill="#409ad1"/><path d="M43 0 112 389 34 424V430L176 460H179V355H183Q219 394 245.5 417.0Q272 440 297.5 450.0Q323 460 355 460Q404 460 430.5 420.0Q457 380 445 312L410 119Q405 89 408.5 76.0Q412 63 425 63Q442 63 462.0 81.5Q482 100 500 138L513 132Q484 57 450.5 23.5Q417 -10 382 -10Q347 -10 334.0 17.0Q321 44 329 89L368 309Q373 344 359.5 371.5Q346 399 302 399Q280 399 256.5 384.0Q233 369 211.0 348.5Q189 328 172 309L119 0Z" transform="translate(376.353 250.000) scale(0.01800 -0.01800)" fill="#409ad1"/><path d="M10 0 13 16 96 56 192 604 123 644 126 660H347Q466 660 540.0 625.5Q614 591 648.0 530.5Q682 470 682 392Q682 343 667.5 289.5Q653 236 622.5 184.5Q592 133 544.5 91.5Q497 50 432.0 25.0Q367 0 282 0ZM333 610H279L180 50H290Q389 50 455.5 91.0Q522 132 555.5 206.0Q589 280 589 380Q589 486 528.0 548.0Q467 610 333 610Z" transform="translate(390.177 250.000) scale(0.01800 -0.01800)" fill="#409ad1"/><path d="M136 -10Q96 -10 71.5 24.5Q47 59 47 128Q47 190 66.5 249.0Q86 308 120.5 356.0Q155 404 200.0 432.0Q245 460 296 460Q321 460 344.0 454.0Q367 448 385 438L420 460H445L384 119Q379 89 382.5 76.0Q386 63 399 63Q416 63 436.0 81.5Q456 100 474 138L487 132Q458 57 424.5 23.5Q391 -10 356 -10Q321 -10 308.0 17.0Q295 44 303 89L308 115H304Q267 57 224.5 23.5Q182 -10 136 -10ZM123 167Q123 111 135.5 83.5Q148 56 183 56Q207 56 231.0 72.0Q255 88 277.0 113.0Q299 138 316 164L353 370Q334 395 314.5 408.0Q295 421 267 421Q224 421 191.5 384.0Q159 347 141.0 289.0Q123 231 123 167Z" transform="translate(403.353 250.000) scale(0.01800 -0.01800)" fill="#409ad1"/><path d="M197 0 108 394 23 424V430L171 460H174L250 111H254L331 229Q356 268 371.0 300.0Q386 332 387 366L331 414L358 447Q369 460 382 460Q404 460 423.5 435.5Q443 411 443 381Q443 357 427.5 323.5Q412 290 371 228L218 0Z" transform="translate(412.479 250.000) scale(0.01800 -0.01800)" fill="#409ad1"/><path d="M196 585Q173 585 156.0 602.0Q139 619 139 642Q139 665 156.0 682.0Q173 699 196 699Q219 699 236.0 682.0Q253 665 253 642Q253 619 236.0 602.0Q219 585 196 585ZM125 -10Q90 -10 77.0 17.0Q64 44 72 89L125 390L38 424V430L211 460H214L153 119Q148 89 151.5 76.0Q155 63 168 63Q185 63 205.0 81.5Q225 100 243 138L256 132Q227 57 193.5 23.5Q160 -10 125 -10Z" transform="translate(420.543 250.000) scale(0.01800 -0.01800)" fill="#409ad1"/><path d="M302 127Q302 95 280.0 63.5Q258 32 217.5 11.0Q177 -10 121 -10Q97 -10 69.0 -0.5Q41 9 21.5 25.0Q2 41 2 60Q2 68 5.5 73.5Q9 79 15 84L38 106L117 26Q125 25 131 25Q181 25 209.0 48.0Q237 71 237 103Q237 129 221.5 151.0Q206 173 153 204Q100 236 82.0 263.5Q64 291 64 332Q64 362 86.5 391.5Q109 421 147.5 440.5Q186 460 235 460Q285 460 312.5 442.5Q340 425 340 402Q340 393 333 386L310 361L234 427Q229 427 224 427Q179 427 155.0 406.5Q131 386 131 354Q131 339 136.5 325.5Q142 312 160.0 297.0Q178 282 213 260Q266 228 284.0 199.0Q302 170 302 127Z" transform="translate(425.727 250.000) scale(0.01800 -0.01800)" fill="#409ad1"/></svg>