<svg xmlns="http://www.w3.org/2000/svg" viewBox="0 0 256 256" width="256" height="256"><title>F4F icon</title><rect width="256" height="256" fill="#f4efe2"/><rect x="10" y="10" width="236" height="236" fill="none" stroke="#1b3a6b" stroke-width="10"/><path d="M381 531 385 505 73 105 87 139H405Q446 139 457.0 149.0Q468 159 472 184H493Q493 124 494.0 90.5Q495 57 497 31Q490 33 471.0 33.5Q452 34 426.0 35.0Q400 36 373.5 36.0Q347 36 324 36H8V57ZM397 531V-141H281V390L381 531Z" transform="translate(94.736 143.622) scale(0.12600 -0.12600)" fill="#9bb4d6" opacity="0.5"/><path d="M44 0V16L129 57V603L44 644V660H579V487H563L495 605H280V365H424L480 451H496V232H480L424 316H280V57L382 16V0Z" transform="translate(63.671 143.622) scale(0.09030 -0.09030)" fill="#1b3a6b"/><path d="M44 0V16L129 57V603L44 644V660H579V487H563L495 605H280V365H424L480 451H496V232H480L424 316H280V57L382 16V0Z" transform="translate(135.350 143.622) scale(0.09030 -0.09030)" fill="#1b3a6b"/></svg>